<?xml version="1.0" standalone="no"?>
<!DOCTYPE svg PUBLIC "-//W3C//DTD SVG 20010904//EN"
 "http://www.w3.org/TR/2001/REC-SVG-20010904/DTD/svg10.dtd">
<svg version="1.0" xmlns="http://www.w3.org/2000/svg"
 width="732.000000pt" height="732.000000pt" viewBox="0 0 732.000000 732.000000"
 preserveAspectRatio="xMidYMid meet">
<metadata>
Created by potrace 1.11, written by Peter Selinger 2001-2013
</metadata>
<g transform="translate(0.000000,732.000000) scale(0.100000,-0.100000)"
fill="#000000" stroke="none">
<path d="M3458 7305 c-1 -2 -48 -6 -103 -10 -90 -6 -337 -39 -375 -50 -8 -2
-31 -7 -50 -10 -27 -5 -140 -30 -220 -50 -256 -64 -665 -238 -921 -393 -108
-65 -325 -213 -380 -259 -13 -11 -55 -47 -94 -79 -474 -393 -858 -937 -1080
-1529 -41 -109 -111 -336 -118 -384 -3 -16 -7 -33 -10 -38 -3 -4 -8 -24 -11
-43 -3 -19 -14 -78 -25 -130 -11 -52 -23 -122 -26 -155 -4 -33 -9 -62 -10 -65
-2 -3 -6 -46 -10 -95 -3 -50 -8 -108 -11 -130 -6 -49 -5 -391 1 -460 2 -27 7
-83 10 -124 4 -41 9 -83 11 -95 2 -12 6 -41 9 -66 5 -38 13 -93 30 -185 2 -11
9 -42 15 -70 6 -27 13 -58 15 -67 13 -63 70 -260 100 -348 102 -294 234 -560
412 -828 133 -202 272 -372 458 -558 167 -168 266 -254 425 -370 52 -38 96
-72 98 -76 2 -5 8 -8 14 -8 6 0 25 -10 42 -23 111 -83 421 -248 624 -331 247
-102 607 -201 832 -230 35 -5 90 -13 145 -21 157 -23 597 -24 780 -1 17 2 61
7 99 10 38 4 72 9 75 10 3 2 29 7 56 10 28 4 57 9 65 11 8 2 26 6 40 9 126 23
326 77 475 128 99 34 296 112 335 133 23 12 223 113 277 139 13 6 23 14 23 19
0 4 4 7 9 7 20 0 237 141 366 238 254 192 531 470 732 737 278 369 491 812
607 1262 35 138 70 306 82 402 3 25 7 57 9 70 3 13 7 61 11 105 3 45 7 95 10
111 5 41 4 385 -1 465 -6 83 -15 183 -19 207 -2 10 -7 43 -10 74 -4 31 -9 67
-11 80 -3 13 -7 35 -10 49 -31 166 -68 319 -112 455 -231 724 -682 1362 -1282
1812 -53 40 -101 77 -107 82 -47 39 -317 201 -419 251 -38 19 -71 38 -73 43
-2 4 -11 7 -21 7 -9 0 -21 4 -27 9 -45 43 -606 240 -729 256 -16 2 -37 6 -45
9 -38 14 -334 61 -405 65 -16 0 -41 4 -55 7 -27 6 -516 15 -522 9z"/>
</g>
</svg>
