<svg id="Layer_1" data-name="Layer 1" xmlns="http://www.w3.org/2000/svg" viewBox="0 0 658.49 165.76"><defs><style>.cls-1{fill:#f1f1f1;}</style></defs><title>Wadax</title><path class="cls-1" d="M292.31,32.52l-27.08,80.17H247.57L229.7,59l-17.77,53.73H194.27L167.08,32.52h20.26L204,87.23l16.9-54.71h17.55l17,54.71,16.57-54.71Z"/><path class="cls-1" d="M370.75,63.72v49H351.69V91.24H317.35v21.45H298.28v-49c0-19.39,14.52-32.28,36.29-32.28S370.75,44.33,370.75,63.72ZM351.69,75.53v-11c0-10.4-6.83-17.33-17-17.33-10.51,0-17.33,6.93-17.33,17.33v11Z"/><path class="cls-1" d="M461.11,72.5c0,24-15.93,40.19-39.87,40.19h-33.8V32.52h33.8C445.18,32.52,461.11,48.45,461.11,72.5Zm-19.72,0c0-14.63-7.91-24.27-19.82-24.27H406.51V97h15.06C433.48,97,441.39,87.12,441.39,72.5Z"/><path class="cls-1" d="M545.72,63.72v49H526.65V91.24H492.31v21.45H473.24v-49c0-19.39,14.52-32.28,36.29-32.28S545.72,44.33,545.72,63.72ZM526.65,75.53v-11c0-10.4-6.82-17.33-17-17.33-10.5,0-17.33,6.93-17.33,17.33v11Z"/><path class="cls-1" d="M609.53,112.69,592.09,86l-17.23,26.65h-22l28.71-41.6L554.71,32.52H576.6l15.49,23.62,15.38-23.62h21.88L602.6,71l28.81,41.71Z"/><path class="cls-1" d="M53.38,42.24l-4.93.81-1.91-9.89L30.87,57.43,53.8,70.89,51.56,59.22l4.5-.75a153.6,153.6,0,0,1,64.25,3.11V122.5L68.94,147.8,16.45,127.37V115h0l.07-.16c-3.53-1-7-2.19-10.5-3.49l-6-2.23v29.55l69.72,27.14,67-33V49.33L131,47.53A170.14,170.14,0,0,0,53.38,42.24Z"/><path class="cls-1" d="M0,0V95.52l6,2.23A144.19,144.19,0,0,0,56.65,107a143.72,143.72,0,0,0,28.12-2.81l3.32,17.25,22.33-34.6L77.74,67.66,81.66,88a127,127,0,0,1-65.21-4V16.45H120.31V31.13h.1Q125.73,32.41,131,34l5.79,1.79V0Z"/><path class="cls-1" d="M642.68,12.26H647a7.54,7.54,0,0,1,1.6.17,3.9,3.9,0,0,1,1.32.54,2.73,2.73,0,0,1,.9,1,3.4,3.4,0,0,1,.34,1.61,3.21,3.21,0,0,1-.61,2,2.73,2.73,0,0,1-1.77,1l2.8,4.66h-2.91l-2.31-4.41h-1.2V23.3h-2.43Zm2.43,4.57h1.43l.7,0a2.66,2.66,0,0,0,.66-.14,1.17,1.17,0,0,0,.08-2.12,1.89,1.89,0,0,0-.61-.18,5.16,5.16,0,0,0-.67,0h-1.59Z"/><path class="cls-1" d="M646.66,30A11.84,11.84,0,1,1,658.49,18.2,11.84,11.84,0,0,1,646.66,30Zm0-21.22A9.39,9.39,0,1,0,656,18.2,9.4,9.4,0,0,0,646.66,8.81Z"/></svg>